<?xml version="1.0" encoding="UTF-8"?>
<svg version="1.1" xmlns="http://www.w3.org/2000/svg" width="512" height="512">
<path d="M0 0 C29.7 0 59.4 0 90 0 C90 11.22 90 22.44 90 34 C93.63 34.66 97.26 35.32 101 36 C136.66176249 45.25733068 168.56415848 62.45969499 196 87 C196.56235352 87.50063965 197.12470703 88.0012793 197.70410156 88.51708984 C204.21005613 94.33523037 210.49795978 100.20336209 216 107 C216.91144285 108.09897118 217.82290281 109.19792816 218.734375 110.296875 C242.04827407 138.65710513 260.75631457 173.29420197 266 210 C277.22 210 288.44 210 300 210 C300 239.7 300 269.4 300 300 C288.78 300 277.56 300 266 300 C264.515 307.425 264.515 307.425 263 315 C261.8650241 318.9518731 260.70216439 322.80602598 259.375 326.6875 C259.02872559 327.70787354 258.68245117 328.72824707 258.32568359 329.77954102 C248.45189691 358.21030353 233.04452013 383.59040577 213 406 C212.49936035 406.56235352 211.9987207 407.12470703 211.48291016 407.70410156 C205.66409531 414.21081017 199.79362676 420.49322063 193 426 C191.92435272 426.89958842 190.8488451 427.79934383 189.7734375 428.69921875 C180.64898883 436.24921416 171.10481814 442.83458959 161 449 C160.36545898 449.3928418 159.73091797 449.78568359 159.07714844 450.19042969 C138.38351189 462.89248917 114.07218576 472.56111632 90 476 C90 487.22 90 498.44 90 510 C60.3 510 30.6 510 0 510 C0 498.78 0 487.56 0 476 C-7.425 474.515 -7.425 474.515 -15 473 C-18.95190949 471.86501365 -22.80612521 470.70255905 -26.6875 469.375 C-27.71149902 469.02655029 -28.73549805 468.67810059 -29.79052734 468.3190918 C-58.49682484 458.32994085 -84.47255641 443.00714256 -106.66015625 422.1875 C-108.72324584 420.2587351 -110.83515242 418.43702534 -113 416.625 C-130.15531306 401.54911883 -143.29691233 381.99973655 -154 362 C-154.55010742 360.98824707 -154.55010742 360.98824707 -155.11132812 359.95605469 C-164.26833333 342.99957451 -176 319.55160309 -176 300 C-187.22 300 -198.44 300 -210 300 C-210 270.3 -210 240.6 -210 210 C-198.78 210 -187.56 210 -176 210 C-175.34 206.37 -174.68 202.74 -174 199 C-173.09841063 195.26768081 -171.99931419 191.60852981 -170.875 187.9375 C-170.57005615 186.94161865 -170.2651123 185.9457373 -169.95092773 184.91967773 C-167.00730311 175.58563293 -163.2551964 166.79995973 -159 158 C-158.67386719 157.30825684 -158.34773438 156.61651367 -158.01171875 155.90380859 C-148.6163322 135.97604399 -136.02921691 118.10076986 -121 102 C-119.54129455 100.333659 -118.08296792 98.66698633 -116.625 97 C-101.19889427 79.99172958 -82.15776913 66.78766061 -62 56 C-60.98824707 55.44989258 -60.98824707 55.44989258 -59.95605469 54.88867188 C-42.99957451 45.73166667 -19.55160309 34 0 34 C0 22.78 0 11.56 0 0 Z M90 128 C90 140.21 90 152.42 90 165 C80.1 165 70.2 165 60 165 C60 180.51 60 196.02 60 212 C63.63 213.98 67.26 215.96 71 218 C79.12792046 224.33344451 83.44292339 230.88584679 88 240 C103.51 240 119.02 240 135 240 C135 230.1 135 220.2 135 210 C147.21 210 159.42 210 172 210 C166.82040179 196.72325287 166.82040179 196.72325287 160.0625 184.5625 C159.63775391 183.90548096 159.21300781 183.24846191 158.77539062 182.5715332 C155.18312859 177.09629573 151.29118864 171.94884207 147 167 C146.26523437 166.12085938 145.53046875 165.24171875 144.7734375 164.3359375 C136.21475434 154.43908889 126.12907045 146.82558528 115.1875 139.75 C114.62144043 139.37415771 114.05538086 138.99831543 113.47216797 138.61108398 C106.02111706 133.95795815 98.34411903 131.43581372 90 128 Z M-43 153 C-43.88171875 153.73605469 -44.7634375 154.47210938 -45.671875 155.23046875 C-55.56206697 163.79358694 -63.17526415 173.87224309 -70.25 184.8125 C-70.62584229 185.37855957 -71.00168457 185.94461914 -71.38891602 186.52783203 C-76.04204185 193.97888294 -78.56418628 201.65588097 -82 210 C-69.79 210 -57.58 210 -45 210 C-45 219.9 -45 229.8 -45 240 C-29.49 240 -13.98 240 2 240 C3.98 236.37 5.96 232.74 8 229 C14.33344451 220.87207954 20.88584679 216.55707661 30 212 C30 196.49 30 180.98 30 165 C20.1 165 10.2 165 0 165 C0 152.79 0 140.58 0 128 C-13.81567288 128 -33.21450126 144.61919382 -43 153 Z M-45 270 C-45 279.9 -45 289.8 -45 300 C-57.21 300 -69.42 300 -82 300 C-76.82040179 313.27674713 -76.82040179 313.27674713 -70.0625 325.4375 C-69.63775391 326.09451904 -69.21300781 326.75153809 -68.77539062 327.4284668 C-65.18312859 332.90370427 -61.29118864 338.05115793 -57 343 C-56.26523438 343.87914062 -55.53046875 344.75828125 -54.7734375 345.6640625 C-46.21475434 355.56091111 -36.12907045 363.17441472 -25.1875 370.25 C-24.62144043 370.62584229 -24.05538086 371.00168457 -23.47216797 371.38891602 C-16.02111706 376.04204185 -8.34411903 378.56418628 0 382 C0 369.79 0 357.58 0 345 C9.9 345 19.8 345 30 345 C30 329.49 30 313.98 30 298 C26.37 296.02 22.74 294.04 19 292 C10.87207954 285.66655549 6.55707661 279.11415321 2 270 C-13.51 270 -29.02 270 -45 270 Z M88 270 C86.02 273.63 84.04 277.26 82 281 C75.66655549 289.12792046 69.11415321 293.44292339 60 298 C60 313.51 60 329.02 60 345 C69.9 345 79.8 345 90 345 C90 357.21 90 369.42 90 382 C103.27674713 376.82040179 103.27674713 376.82040179 115.4375 370.0625 C116.09451904 369.63775391 116.75153809 369.21300781 117.4284668 368.77539062 C122.90370427 365.18312859 128.05115793 361.29118864 133 357 C133.87914062 356.26523437 134.75828125 355.53046875 135.6640625 354.7734375 C145.56091111 346.21475434 153.17441472 336.12907045 160.25 325.1875 C160.62584229 324.62144043 161.00168457 324.05538086 161.38891602 323.47216797 C166.04204185 316.02111706 168.56418628 308.34411903 172 300 C159.79 300 147.58 300 135 300 C135 290.1 135 280.2 135 270 C119.49 270 103.98 270 88 270 Z " fill="#000000" transform="translate(211,1)"/>
<path d="M0 0 C0 10.56 0 21.12 0 32 C-6.435 33.98 -6.435 33.98 -13 36 C-55.0238659 52.03696275 -87.19834797 83.318201 -106 124 C-108.95636996 130.8431922 -111.53452777 137.67263886 -113 145 C-123.56 145 -134.12 145 -145 145 C-137.15465716 109.69595722 -118.81853442 79.03009009 -94 53 C-93.27296875 52.22011719 -92.5459375 51.44023438 -91.796875 50.63671875 C-71.55187881 29.52943568 -30.72642619 0 0 0 Z " fill="#F0F2F6" transform="translate(211,66)"/>
<path d="M0 0 C10.56 0 21.12 0 32 0 C22.2184404 35.86571855 5.91032753 66.19877295 -20 93 C-20.67289062 93.72445312 -21.34578125 94.44890625 -22.0390625 95.1953125 C-45.62945786 119.9903238 -78.46423116 135.89136482 -111 145 C-111.66 145 -112.32 145 -113 145 C-113 134.44 -113 123.88 -113 113 C-110.380625 112.175 -107.76125 111.35 -105.0625 110.5 C-83.87295123 103.54067793 -65.60769101 92.81598991 -49 78 C-47.89591797 77.07767578 -47.89591797 77.07767578 -46.76953125 76.13671875 C-23.62249669 56.77822078 -8.1961537 28.68653796 0 0 Z " fill="#F0F2F6" transform="translate(414,301)"/>
<path d="M0 0 C35.30083992 9.6275018 65.0474276 25.25541938 91.60302734 50.66601562 C92.79431246 51.80358673 93.99929764 52.92678224 95.20703125 54.046875 C101.53421073 60.07766929 106.75410317 67.03512042 112 74 C112.6290625 74.83402344 113.258125 75.66804688 113.90625 76.52734375 C128.9774237 97.32129803 139.0480477 120.12934216 145 145 C134.44 145 123.88 145 113 145 C111.68 140.71 110.36 136.42 109 132 C95.42783422 96.43498165 70.64458239 67.38384307 38 48 C37.41669922 47.65340332 36.83339844 47.30680664 36.23242188 46.94970703 C24.93745121 40.35064212 12.7070234 35.17675585 0 32 C0 21.44 0 10.88 0 0 Z " fill="#F0F2F6" transform="translate(301,66)"/>
<path d="M0 0 C10.56 0 21.12 0 32 0 C32.825 2.619375 33.65 5.23875 34.5 7.9375 C41.45932207 29.12704877 52.18401009 47.39230899 67 64 C67.92232422 65.10408203 67.92232422 65.10408203 68.86328125 66.23046875 C87.80020449 88.8734247 116.51786404 105.87946601 145 113 C145 123.56 145 134.12 145 145 C108.97435248 135.1748234 78.92677503 119.03170218 52 93 C51.27554688 92.32710938 50.55109375 91.65421875 49.8046875 90.9609375 C43.46890212 84.93296355 38.24827757 77.96804045 33 71 C32.3709375 70.16597656 31.741875 69.33195312 31.09375 68.47265625 C18.33286378 50.86624484 0 22.39959005 0 0 Z " fill="#F1F3F7" transform="translate(66,301)"/>
<path d="M0 0 C9.9 0 19.8 0 30 0 C30 34.65 30 69.3 30 105 C20.1 105 10.2 105 0 105 C0 70.35 0 35.7 0 0 Z " fill="#FF637B" transform="translate(241,376)"/>
<path d="M0 0 C34.65 0 69.3 0 105 0 C105 9.9 105 19.8 105 30 C70.35 30 35.7 30 0 30 C0 20.1 0 10.2 0 0 Z " fill="#FF637B" transform="translate(376,241)"/>
<path d="M0 0 C34.65 0 69.3 0 105 0 C105 9.9 105 19.8 105 30 C70.35 30 35.7 30 0 30 C0 20.1 0 10.2 0 0 Z " fill="#FF637B" transform="translate(31,241)"/>
<path d="M0 0 C9.9 0 19.8 0 30 0 C30 34.65 30 69.3 30 105 C20.1 105 10.2 105 0 105 C0 70.35 0 35.7 0 0 Z " fill="#FF637B" transform="translate(241,31)"/>
<path d="M0 0 C4.36492736 2.40706674 5.93942071 4.83284673 7.8125 9.4375 C8.54520346 14.47483626 7.62027557 18.24512573 5.20703125 22.63671875 C1.9113554 26.89247944 -2.54684459 28.17382324 -7.6875 29 C-12.37661747 28.24639184 -15.64727219 26.60297396 -19.1875 23.4375 C-21.97287223 18.73718437 -22.86540686 14.86075487 -22.1875 9.4375 C-20.44294414 4.504976 -17.73316107 1.40475576 -13.0390625 -0.90234375 C-8.34602817 -2.57559861 -4.45447532 -1.90552555 0 0 Z " fill="#FA6178" transform="translate(263.1875,242.5625)"/>
</svg>
